# xmcd
#
# Track frame offsets:
# 150
# 10952
# 29152
# 40365
# 54457
# 65992
# 82615
# 93512
# 109773
# 121349
# 134528
# 148325
# 162461
#
# Disc length: 2350 seconds
#
#
# Revision: 0
# Processed by: cddbd v1.5.1PL0 Copyright (c) Steve Scherf et al.
# Submitted via: FreeRIP 2.80 
#
DISCID=bf092c0d
DTITLE=Gonzagao - Gonzagao Sanfoneiro Macho
DYEAR=1900
DGENRE=Country
TTITLE0=Deixa a Tanga Voar
TTITLE1=Forro Nº1
TTITLE2=A Puxada
TTITLE3=Sanfoneiro Macho
TTITLE4=Flor do Lirio
TTITLE5=Eu e Minha Branca
TTITLE6=Maria Baiana
TTITLE7=Qui nem Jilo
TTITLE8=Morena Bela
TTITLE9=Forro do Bom
TTITLE10=Ta bom Demais
TTITLE11=A mulher do Sanfoneiro
TTITLE12=Amei a Toa
EXTD=
EXTT0=
EXTT1=
EXTT2=
EXTT3=
EXTT4=
EXTT5=
EXTT6=
EXTT7=
EXTT8=
EXTT9=
EXTT10=
EXTT11=
EXTT12=
PLAYORDER=
